<?xml version="1.0" encoding="utf-8"?>
<!-- Generator: Adobe Illustrator 25.0.0, SVG Export Plug-In . SVG Version: 6.00 Build 0)  -->
<svg version="1.1" id="Layer_1" xmlns="http://www.w3.org/2000/svg" xmlns:xlink="http://www.w3.org/1999/xlink" x="0px" y="0px"
	 viewBox="0 0 1920 1080" style="enable-background:new 0 0 1920 1080;" xml:space="preserve">
<style type="text/css">
	.st0{fill:#10A8C1;stroke:#10A8C1;stroke-width:10;stroke-miterlimit:10;}
	.st1{fill:#D8401D;stroke:#D8401D;stroke-width:10;stroke-miterlimit:10;}
	.st2{fill:#EFF74D;stroke:#EFF74D;stroke-width:10;stroke-miterlimit:10;}
</style>
<path class="st0" d="M257,517c127.73-145.57,576.46,112.16,652,0c35.31-52.43-49.63-128.17-11-187c53.84-81.98,309.82-73.48,404,60
	c92.58,131.22,7.44,352.96-116,460c-283.1,245.49-917.72,17.82-958-212C226.74,630.79,215.99,563.74,257,517z"/>
<path class="st1" d="M1233.31,624.62c17.42-1.53,27.67,48.18,53.33,92.07c75.4,128.96,235.79,125.39,235.32,161.42
	c-0.82,62.45-484.13,186.23-567.05,41.21c-55.24-96.6,74.81-299.15,135.78-289.79c45.25,6.94,57.46,131.41,86.22,128.28
	C1205.88,754.66,1205.64,627.06,1233.31,624.62z"/>
<path class="st2" d="M601,421c-67.45-9.17-108.93,139.92-169,134c-48.23-4.75-99.13-108.51-70-172c42.93-93.57,259.22-98.72,315-17
	c27.66,40.52,18.76,106.64,0,113C658.05,485.42,641.82,426.55,601,421z"/>
</svg>
